<?xml version="1.0" encoding="UTF-8"?>
<svg width="84px" height="84px" viewBox="0 0 84 84" version="1.1" xmlns="http://www.w3.org/2000/svg" xmlns:xlink="http://www.w3.org/1999/xlink">
    <title>facebook</title>
    <defs>
        <filter x="-15.4%" y="-15.4%" width="130.9%" height="130.9%" filterUnits="objectBoundingBox" id="filter-1">
            <feOffset dx="2" dy="2" in="SourceAlpha" result="shadowOffsetOuter1"></feOffset>
            <feGaussianBlur stdDeviation="1.5" in="shadowOffsetOuter1" result="shadowBlurOuter1"></feGaussianBlur>
            <feColorMatrix values="0 0 0 0 0   0 0 0 0 0   0 0 0 0 0  0 0 0 0.5 0" type="matrix" in="shadowBlurOuter1" result="shadowMatrixOuter1"></feColorMatrix>
            <feMerge>
                <feMergeNode in="shadowMatrixOuter1"></feMergeNode>
                <feMergeNode in="SourceGraphic"></feMergeNode>
            </feMerge>
        </filter>
    </defs>
    <g id="Page-1" stroke="none" stroke-width="1" fill="none" fill-rule="evenodd">
        <g id="Desktop-HD-Copy" transform="translate(-1333.000000, -821.000000)" fill="#FFFFFF" fill-rule="nonzero">
            <g id="facebook" filter="url(#filter-1)" transform="translate(1341.000000, 829.000000)">
                <path d="M67.9994381,34.5362972 C68.1077628,52.9740786 52.539892,68.4873994 33.0481367,67.9882816 C14.2648617,67.4573902 -0.524896891,52.034329 0.0142862714,33.5399102 C0.553469433,15.0454914 16.2174167,0.483175168 35.0006916,1.01406657 C53.1970018,1.50209287 68.0889883,16.2648884 67.9994381,34.5362972 Z M37.2874339,34.7174585 C38.9245761,34.7174585 40.4490709,34.7174585 41.9735657,34.7174585 C42.5555773,34.7174585 42.8409507,34.5473887 42.8897646,33.9225672 C43.0349546,32.0690531 43.2151904,30.2204687 43.4304721,28.3768138 C43.5093253,27.7002319 43.2765207,27.4710074 42.611901,27.4784017 C41.0798964,27.5005847 39.5516466,27.4784017 38.019642,27.4784017 C37.4639148,27.4784017 37.1672766,27.3490008 37.1898061,26.7389679 C37.2236003,25.7666125 37.1898061,24.7905599 37.2573946,23.8219017 C37.3850616,22.1175068 38.0083772,21.5444456 39.750657,21.4852909 C40.6480813,21.4594107 41.5530155,21.4261362 42.4466848,21.4852909 C43.2652559,21.5333541 43.6407473,21.3263126 43.6031982,20.4242034 C43.5356097,18.7715689 43.5543843,17.1152372 43.6031982,15.4626027 C43.6257276,14.6898944 43.3441091,14.4015152 42.5630871,14.4273954 C40.4077669,14.4976416 38.2486917,14.5124303 36.0896165,14.5826765 C32.0681043,14.7305633 29.1092325,17.4036164 28.741251,21.3484956 C28.5722799,23.1379254 28.6023192,24.945841 28.6023192,26.7426651 C28.6023192,27.4118527 28.395799,27.6262885 27.7161597,27.5782253 C26.8825689,27.5190706 26.0377134,27.5782253 25.1966128,27.5560423 C24.625866,27.5560423 24.4043261,27.7556894 24.4116518,28.3398421 C24.4393719,30.2007504 24.4393719,32.0616588 24.4116518,33.9225672 C24.4116518,34.5178114 24.6784348,34.7100641 25.2191423,34.7026698 C25.9699326,34.737979 26.7221673,34.7305723 27.4720903,34.6804868 C28.3657597,34.5658745 28.5985643,34.8727396 28.5985643,35.7304828 C28.5647701,41.6977134 28.5985643,47.664944 28.5647701,53.6358719 C28.5647701,54.4640377 28.7975747,54.8004801 29.6912441,54.7819942 C31.8803586,54.733931 34.0694731,54.7450225 36.2623425,54.7819942 C37.0358547,54.7819942 37.3362477,54.5194952 37.3212281,53.7504841 C37.2836789,51.8575336 37.3212281,49.9682803 37.3212281,48.0753298 C37.2836789,43.6646073 37.2874339,39.2649762 37.2874339,34.7174585 L37.2874339,34.7174585 Z" id="Shape"></path>
            </g>
        </g>
    </g>
</svg>