<?xml version="1.0" encoding="UTF-8"?>
<svg width="84px" height="84px" viewBox="0 0 84 84" version="1.1" xmlns="http://www.w3.org/2000/svg" xmlns:xlink="http://www.w3.org/1999/xlink">
    <title>Instagram</title>
    <defs>
        <filter x="-15.4%" y="-15.4%" width="130.9%" height="130.9%" filterUnits="objectBoundingBox" id="filter-1">
            <feOffset dx="2" dy="2" in="SourceAlpha" result="shadowOffsetOuter1"></feOffset>
            <feGaussianBlur stdDeviation="1.5" in="shadowOffsetOuter1" result="shadowBlurOuter1"></feGaussianBlur>
            <feColorMatrix values="0 0 0 0 0   0 0 0 0 0   0 0 0 0 0  0 0 0 0.5 0" type="matrix" in="shadowBlurOuter1" result="shadowMatrixOuter1"></feColorMatrix>
            <feMerge>
                <feMergeNode in="shadowMatrixOuter1"></feMergeNode>
                <feMergeNode in="SourceGraphic"></feMergeNode>
            </feMerge>
        </filter>
    </defs>
    <g id="Page-1" stroke="none" stroke-width="1" fill="none" fill-rule="evenodd">
        <g id="Desktop-HD-Copy" transform="translate(-1333.000000, -909.000000)" fill="#FFFFFF" fill-rule="nonzero">
            <g id="Instagram" filter="url(#filter-1)" transform="translate(1341.000000, 917.000000)">
                <path d="M50.5530907,22.2838147 C49.4511227,18.9745666 46.5786593,17.0037255 43.011956,17.000024 C37.0025569,17.000024 30.9931577,17.000024 24.9874318,17.000024 C24.0753267,16.9979001 23.168364,17.1368108 22.2986297,17.4118661 C19.0110917,18.5149488 17.0202027,21.368256 17.0128563,24.9128284 C16.9957146,30.9699781 16.9957146,37.0246764 17.0128563,43.0769235 C16.9442371,45.6449101 18.1681352,48.0758452 20.2710085,49.548342 C21.6493235,50.5349666 23.3119727,51.0436915 25.0057979,50.9970573 C28.0031511,50.9970573 31.0005042,50.9970573 33.9978573,50.9970573 L42.9568576,50.9970573 C43.8982958,51.0195276 44.8365316,50.8789608 45.7301439,50.5815628 C48.9993158,49.4159721 50.9865315,46.5994343 50.9902047,43.047508 C50.9902047,37.0062917 51.0122441,30.9650755 50.9902047,24.9238592 C50.9825821,24.026441 50.8351032,23.1357101 50.5530907,22.2838147 Z M33.9721447,44.6580087 C29.6616645,44.6580087 25.7760412,42.0576171 24.1285583,38.0703683 C22.4810754,34.0831195 23.3964927,29.4949901 26.4476172,26.4470985 C29.4987417,23.3992068 34.0841209,22.4923681 38.06392,24.1497719 C42.0437191,25.8071757 44.6334208,29.7021066 44.6245255,34.0169376 C44.5942774,39.8898637 39.8391863,44.6399165 33.9721447,44.6580087 L33.9721447,44.6580087 Z M45.0873292,25.6114475 C44.0036074,25.608455 43.0285349,24.9518888 42.6172574,23.9482219 C42.2059798,22.944555 42.4395954,21.7916963 43.2090566,21.0277788 C43.9785178,20.2638614 45.1320978,20.0395189 46.1313269,20.4594703 C47.130556,20.8794217 47.7784002,21.8608585 47.7724985,22.9456643 C47.7485777,24.4165001 46.5568256,25.5996659 45.0873292,25.6114475 L45.0873292,25.6114475 Z" id="Shape"></path>
                <path d="M34.5041869,0 C20.9545633,-0.00151786499 8.73829134,8.28123267 3.55203855,20.985856 C-1.63421424,33.6904793 1.23094895,48.3148872 10.811451,58.039455 C20.391953,67.7640229 34.8009798,70.6735639 47.3193429,65.4113068 C59.8377061,60.1490497 68,47.7513598 68,33.999503 C68,15.2235614 53.0040118,0.00207239973 34.5041869,0 Z M55.2916316,44.2819134 C55.2657489,44.4282689 55.2509589,44.578377 55.2139837,44.7247325 C54.9329724,45.8205222 54.7998617,46.9763552 54.337672,48.0045963 C52.2670621,52.5528742 48.71005,54.9883794 43.7627713,55.0559281 C37.5953117,55.145993 31.4241546,55.082197 25.2529976,55.0746916 C22.9073859,55.1097751 20.6115407,54.3869542 18.6972986,53.0107041 C15.3917178,50.6164786 13.7352298,47.3253568 13.7241373,43.2086399 C13.7068822,37.0542045 13.7068822,30.90102 13.7241373,24.7490863 C13.7164245,23.954071 13.7907805,23.1604222 13.9459883,22.3811298 C14.9775958,17.6001842 17.843172,14.5492354 22.4872543,13.2357889 C23.0936472,13.0631645 23.7333178,13.0031212 24.3360132,12.8867873 L44.6353855,12.8867873 C45.0606,12.9580887 45.4932096,13.0031212 45.9110291,13.0969388 C50.6216667,14.173965 53.6425387,17.0673002 54.9329724,21.7919552 C55.1030582,22.4073987 55.1622185,23.0528639 55.273144,23.6683074 L55.2916316,44.2819134 Z" id="Shape"></path>
                <path d="M34,27 C30.1340068,27 27,30.1340068 27,34 C27,37.8659932 30.1340068,41 34,41 C37.8659932,41 41,37.8659932 41,34 C41,30.1340068 37.8659932,27 34,27 Z" id="Path"></path>
            </g>
        </g>
    </g>
</svg>